<?xml version="1.0" encoding="utf-8"?><svg viewBox="0 0 100 100" xmlns="http://www.w3.org/2000/svg" width="200px" height="200px" xmlns:xlink="http://www.w3.org/1999/xlink" style="width:100%;height:100%;background-size:initial;background-repeat-y:initial;background-repeat-x:initial;background-position-y:initial;background-position-x:initial;background-origin:initial;background-color:initial;background-clip:initial;background-attachment:initial;animation-play-state:paused" ><g class="ldl-scale" style="transform-origin:50% 50%;transform:rotate(0deg) scale(0.8, 0.8);animation-play-state:paused" ><path stroke-miterlimit="10" stroke-linejoin="round" stroke-linecap="round" stroke-width="3" stroke="#323232" fill="none" d="M32.131 27.324v-6.541a5.572 5.572 0 0 1 5.572-5.572h24.595a5.572 5.572 0 0 1 5.572 5.572v6.541" style="stroke:rgb(50, 50, 50);animation-play-state:paused" ></path>
<path fill="#66503a" d="M85.413 84.789H14.587a3.176 3.176 0 0 1-3.176-3.176V32.527a3.176 3.176 0 0 1 3.176-3.176h70.826a3.176 3.176 0 0 1 3.176 3.176v49.086a3.176 3.176 0 0 1-3.176 3.176z" style="fill:rgb(102, 80, 58);animation-play-state:paused" ></path>
<path fill="#4a3826" d="M55.167 59.901C73.287 59.209 90 54.889 90 46.942V30.616a3.292 3.292 0 0 0-3.292-3.292H13.292A3.292 3.292 0 0 0 10 30.616v16.326c0 7.947 16.624 12.267 34.744 12.959h10.423z" style="fill:rgb(74, 56, 38);animation-play-state:paused" ></path>
<path fill="#f4e6c8" d="M52.385 70.141h-4.77a2.439 2.439 0 0 1-2.439-2.439V51.105a2.439 2.439 0 0 1 2.439-2.439h4.77a2.439 2.439 0 0 1 2.439 2.439v16.597a2.439 2.439 0 0 1-2.439 2.439z" style="fill:rgb(244, 230, 200);animation-play-state:paused" ></path>
<metadata xmlns:d="https://loading.io/stock/" style="animation-play-state:paused" ><d:name style="animation-play-state:paused" >work</d:name>


<d:tags style="animation-play-state:paused" >work,business,sales,briefcase,box,carry,baggage,backpack,suitcase</d:tags>


<d:license style="animation-play-state:paused" >by</d:license>


<d:slug style="animation-play-state:paused" >9st7fl</d:slug></metadata></g><!-- generated by https://loading.io/ --></svg>